<svg xmlns="http://www.w3.org/2000/svg" viewBox="0 0 484.52 372.56"><defs><style>.cls-1{fill:#2656a0;}.cls-2{fill:#fff;}</style></defs><path d="M440.35,676.32H467c23.69,0,30.08,16.58,30.08,27.4,0,20.81-14.17,37.85-44.45,37.85H426.54v-1.65c5-.92,6.59-1.23,8.34-7.62l12.27-43.52a29.73,29.73,0,0,0,1.13-6.38c0-3.51-2.68-4-7.93-4.43Z" transform="translate(-405.61 -449.41)"/><path d="M519.49,731c-4,6.08-8.55,11.74-14.32,11.74-4.84,0-4.84-4.53-4.84-6.38,0-4.84,8.14-30.39,8.14-33.27,0-2.17-.83-2.68-6.49-2.68v-1.65c3.91-.21,12.46-1.85,16.48-2.57l.31.2-9.07,33.17c-.41,1.44-1.65,5.56-1.65,6.8a1.68,1.68,0,0,0,1.65,1.54c1.24,0,4.22-2.06,8.45-8Z" transform="translate(-405.61 -449.41)"/><path d="M517.43,685.12c-2.58,0-4.95-1.75-4.95-5.35s2.37-5.57,4.84-5.57c3.4,0,5.15,3.4,5.15,5.67C522.47,681.93,520.83,685.12,517.43,685.12Z" transform="translate(-405.61 -449.41)"/><path d="M567.9,730.86c-5.16,6.9-8.76,11.64-14.32,11.64-4.74,0-5-3.09-5-6.08,0-2.47,7.62-27.61,7.62-31.73,0-1.85-.61-3.29-2.57-3.29-4.94,0-11.43,8.86-15.14,14.62-4.74,7.11-6.08,11.54-10.3,25.55h-7.73c3.2-11.64,10.1-35.74,10.1-37.91,0-1.54-1-2.67-6.6-2.67v-1.65c5.57-1,11.13-2.06,16.69-3.19l.31.2-6.59,21.53.2.2c4.85-7.62,14.32-21.93,22.87-21.93,4.74,0,7.11,2.47,7.11,6.79s-8.24,29.87-8.24,33a1.72,1.72,0,0,0,1.65,1.76c2.06,0,4.63-3.3,8.44-8.14Z" transform="translate(-405.61 -449.41)"/><path d="M604.26,731.58c-1.14,1.65-10.51,11.12-20.81,11.12-10.82,0-14.11-8-14.11-14.52,0-14.73,16.27-32,30.8-32,5.25,0,8.44,2.47,8.44,7,0,8.14-9.68,16.48-26.37,18.85l-2.88.41a27.25,27.25,0,0,0-1,6.28c0,7,5.36,9.38,9.68,9.38,5.56,0,9.89-3.5,15-7.73Z" transform="translate(-405.61 -449.41)"/><path d="M607.65,741.57,616,711.49a49.19,49.19,0,0,0,1.65-8.24c0-1.44-.52-3.09-3.71-3.09a19,19,0,0,0-3.4.52v-1.75c5.25-.72,11.33-2.06,16-2.78l.3.2-5,20.5.2.21.83-2.07c3.4-6.79,11.22-18.84,17.71-18.84a4.77,4.77,0,0,1,5,5c0,5.36-3.71,5.36-4.84,5.36-4.43,0-2.89-3.71-5.36-3.71-3.19,0-9.37,11.43-10.2,13-3.91,7.42-5.35,12-9.58,25.75Z" transform="translate(-405.61 -449.41)"/><path d="M640.78,726.53c.72,4.53,2.37,14,10.71,14,5.77,0,7.42-4.94,7.42-8.34,0-6.8-12.26-16.69-12.26-24.62,0-3.19,1.44-11.43,12.36-11.43,4.64,0,6.7,1.75,9.79,1.75a3.08,3.08,0,0,0,2.88-1.86h1.44l-2.06,14.32h-1.64c-.52-5.87-3-11.85-9.69-11.85-2.26,0-5.56.93-5.56,6,0,6.49,12.57,15.65,12.57,24.41,0,11.23-9.58,13.8-15.35,13.8-3.09,0-7.21-2-10.2-2-1.44,0-1.85,1-2.47,2.16h-1.65l2.06-16.38Z" transform="translate(-405.61 -449.41)"/><path d="M754.07,693.36c-.21-2.88-1.14-16.68-15.87-16.68-20.6,0-31.1,24.92-31.1,40.07,0,13.49,5.66,22,17.92,22,11.64,0,18.85-7.31,23.79-12.16l1.75,1.45c-3.81,4.53-13,15.34-28,15.34-11.95,0-27-7.21-27-27.81,0-19.88,18.23-42.64,41.82-42.64,7.42,0,13.7,2.47,16.07,2.47,3,0,3.6-1.24,4.12-2.27h2.16l-3.81,20.5Z" transform="translate(-405.61 -449.41)"/><path d="M777.46,729.83c-5.26,7.93-9.27,12.87-15.66,12.87-4.53,0-4.94-3.5-4.94-6.38,0-2.17,14.93-55.94,14.93-58.1,0-2.68-4.32-2.68-7-2.57V674a148,148,0,0,0,16.07-2.78l.51.51-15.55,59.64a33.07,33.07,0,0,0-1,4.84c0,.62,0,2.06,1.54,2.06,2.58,0,4.74-2.88,9.79-9.37Z" transform="translate(-405.61 -449.41)"/><path d="M824.14,730.45c-6.49,9.37-9.16,12-14.32,12-4.63,0-4.84-3.81-4.84-5.36,0-1.85,2.06-10.51,4.43-18.95h-.31c-7,11.64-14.62,24.51-23.89,24.51-3.71,0-5.67-1.54-5.67-6.07s7.83-30.49,7.83-33.27c0-3-2-3-6.18-3v-1.44a136.93,136.93,0,0,0,15.45-2.78l.31.2-9.37,37.39c-.31,1.34,0,3.5,2.16,3.5,4.43,0,10.92-9.68,14.42-15,5.05-7.63,7.31-14.12,11.33-25.14h7.62L815,727.87c-.62,2.06-2,6.59-2,8.14,0,.51.1,1.65,1.23,1.65,2,0,4.85-3.61,8.45-8.14Z" transform="translate(-405.61 -449.41)"/><path d="M833.62,673.59c5.15-.62,10.4-1.34,15.76-2.37l.52.51c-2.27,8.45-5.4,20-8.9,31.6l.2.11c3.4-5.36,8.69-10.51,18-10.51,7.21,0,11.85,8.16,11.85,15.68,0,16.27-17.2,34.09-33,34.09-5.46,0-13.39-3.19-13.39-5.46v-.41l14-51.6c.72-2.89,1.65-5.46,1.65-6.91,0-2.36-.72-2.88-6.7-3Z" transform="translate(-405.61 -449.41)"/><path d="M405.61,819.18c5.05-.92,6.6-1.23,8.35-7.62l12.26-43.11a24.49,24.49,0,0,0,1.14-6.39c0-3.6-2.78-3.91-7.21-4.43V756h25.44v1.65c-5,.93-6.7,1.14-8.45,7.62l-12.26,43.22a22,22,0,0,0-1.14,6.59c0,3.3,2.58,3.61,7,4.12v1.65H405.61Z" transform="translate(-405.61 -449.41)"/><path d="M484.71,810.12c-5.15,6.9-8.76,11.64-14.32,11.64-4.74,0-4.94-3.09-4.94-6.08,0-2.47,7.62-27.6,7.62-31.72,0-1.86-.62-3.3-2.58-3.3-4.94,0-11.43,8.86-15.14,14.63-4.74,7.11-6.08,11.53-10.3,25.54h-7.72c3.19-11.64,10.09-35.74,10.09-37.9,0-1.55-1-2.68-6.59-2.68V778.6c5.56-1,11.12-2.06,16.69-3.19l.3.2-6.59,21.53.21.21c4.84-7.62,14.32-21.94,22.86-21.94,4.74,0,7.11,2.47,7.11,6.8s-8.24,29.87-8.24,33a1.71,1.71,0,0,0,1.65,1.75c2.06,0,4.64-3.3,8.45-8.14Z" transform="translate(-405.61 -449.41)"/><path d="M512.13,780h-8.65l-9.07,34.3a2.36,2.36,0,0,0-.1.83,1.59,1.59,0,0,0,1.65,1.75c2.06,0,5.66-4.84,8.24-8.14l1.34.72c-5.26,7.93-9.27,12.47-14.63,12.47-2.06,0-4.94-1-4.94-4.12,0-1.55,1.95-7.83,2.36-9.48L495.75,780h-7.62a2.33,2.33,0,0,1,.2-1.65c.62-.92,3.51-1.64,5.26-2.57,3.4-1.75,8.34-6.39,11.23-10,.41-.52.82-1.44,1.75-1.24.72-.2.92.72.72,1.55l-2.89,10.61h8.24Z" transform="translate(-405.61 -449.41)"/><path d="M544.06,810.84c-1.14,1.65-10.51,11.13-20.81,11.13-10.82,0-14.11-8-14.11-14.53,0-14.73,16.27-32,30.8-32,5.25,0,8.44,2.47,8.44,7,0,8.14-9.68,16.48-26.37,18.85l-2.88.41a27.41,27.41,0,0,0-1,6.29c0,7,5.35,9.37,9.68,9.37,5.56,0,9.89-3.5,15-7.72Z" transform="translate(-405.61 -449.41)"/><path d="M547.85,820.83l8.34-30.08a49.19,49.19,0,0,0,1.65-8.24c0-1.44-.52-3.09-3.71-3.09a19,19,0,0,0-3.4.52v-1.75c5.25-.72,11.33-2.06,16-2.78l.3.2-5,20.5.2.21.83-2.06c3.4-6.8,11.23-18.85,17.72-18.85a4.77,4.77,0,0,1,4.94,5.05c0,5.35-3.71,5.35-4.84,5.35-4.43,0-2.89-3.71-5.36-3.71-3.19,0-9.37,11.44-10.2,13-3.91,7.42-5.35,12-9.58,25.75Z" transform="translate(-405.61 -449.41)"/><path d="M630.49,810.12c-5.15,6.9-8.76,11.64-14.32,11.64-4.74,0-4.95-3.09-4.95-6.08,0-2.47,7.63-27.6,7.63-31.72,0-1.86-.62-3.3-2.58-3.3-4.94,0-11.43,8.86-15.14,14.63-4.74,7.11-6.08,11.53-10.3,25.54H583.1c3.2-11.64,10.1-35.74,10.1-37.9,0-1.55-1-2.68-6.6-2.68V778.6c5.57-1,11.13-2.06,16.69-3.19l.31.2L597,797.14l.2.21c4.85-7.62,14.32-21.94,22.87-21.94,4.74,0,7.11,2.47,7.11,6.8s-8.24,29.87-8.24,33a1.71,1.71,0,0,0,1.65,1.75c2.06,0,4.63-3.3,8.44-8.14Z" transform="translate(-405.61 -449.41)"/><path d="M677.77,810.53c-6.18,7.62-9.69,11.33-14.12,11.33s-4.32-2.68-4.32-4.43c0-2.37.51-4.63,2.16-10.91l-.21-.21c-8.54,12.57-14,15.66-20.18,15.66-10.31,0-10.61-9.17-10.61-12.16,0-15.14,15.76-34.4,29.46-34.4,4.43,0,7.82,2.68,8.13,5.56h.21l1-4.53.31-.31,6.28-.72.72.31c-.31,1.23-9.78,36.36-9.78,39.55a1.39,1.39,0,0,0,1.44,1.34c1.54,0,3.6-2.58,8.24-7.11Z" transform="translate(-405.61 -449.41)"/><path d="M703.77,780h-8.65l-9.06,34.3a2.16,2.16,0,0,0-.11.83,1.59,1.59,0,0,0,1.65,1.75c2.06,0,5.67-4.84,8.24-8.14l1.34.72c-5.25,7.93-9.27,12.47-14.63,12.47-2.06,0-4.94-1-4.94-4.12,0-1.55,2-7.83,2.37-9.48L687.39,780h-7.62a2.28,2.28,0,0,1,.21-1.65c.62-.92,3.5-1.64,5.25-2.57,3.4-1.75,8.35-6.39,11.23-10,.41-.52.82-1.44,1.75-1.24.72-.2.93.72.72,1.55l-2.88,10.61h8.24Z" transform="translate(-405.61 -449.41)"/><path d="M725.42,810.22c-4,6.08-8.55,11.75-14.32,11.75-4.84,0-4.84-4.54-4.84-6.39,0-4.84,8.13-30.39,8.13-33.27,0-2.16-.82-2.68-6.49-2.68V778c3.92-.2,12.47-1.85,16.48-2.57l.31.2-9.06,33.17c-.41,1.44-1.65,5.56-1.65,6.8a1.68,1.68,0,0,0,1.65,1.54c1.24,0,4.22-2.06,8.45-8Z" transform="translate(-405.61 -449.41)"/><path d="M723.35,764.39c-2.57,0-4.94-1.76-4.94-5.36s2.37-5.56,4.84-5.56c3.4,0,5.15,3.4,5.15,5.66C728.4,761.19,726.75,764.39,723.35,764.39Z" transform="translate(-405.61 -449.41)"/><path d="M772.4,790.65c0,12.67-14.11,31.32-29.87,31.32-10.92,0-15.56-6.29-15.56-14.84,0-15.14,15.25-31.72,30.29-31.72C769.21,775.41,772.4,783.85,772.4,790.65Z" transform="translate(-405.61 -449.41)"/><path d="M816.87,810.12c-5.15,6.9-8.75,11.64-14.31,11.64-4.74,0-4.95-3.09-4.95-6.08,0-2.47,7.62-27.6,7.62-31.72,0-1.86-.61-3.3-2.57-3.3-4.95,0-11.44,8.86-15.14,14.63-4.74,7.11-6.08,11.53-10.3,25.54h-7.73c3.19-11.64,10.1-35.74,10.1-37.9,0-1.55-1-2.68-6.6-2.68V778.6c5.57-1,11.13-2.06,16.69-3.19l.31.2-6.59,21.53.2.21c4.84-7.62,14.32-21.94,22.87-21.94,4.74,0,7.11,2.47,7.11,6.8s-8.24,29.87-8.24,33a1.71,1.71,0,0,0,1.64,1.75c2.06,0,4.64-3.3,8.45-8.14Z" transform="translate(-405.61 -449.41)"/><path d="M864.56,810.53c-6.18,7.62-9.69,11.33-14.12,11.33s-4.32-2.68-4.32-4.43c0-2.37.51-4.63,2.16-10.91l-.2-.21c-8.55,12.57-14,15.66-20.19,15.66-10.3,0-10.61-9.17-10.61-12.16,0-15.14,15.76-34.4,29.46-34.4,4.43,0,7.82,2.68,8.13,5.56h.21l1-4.53.31-.31,6.28-.72.72.31c-.31,1.23-9.78,36.36-9.78,39.55a1.39,1.39,0,0,0,1.44,1.34c1.54,0,3.61-2.58,8.24-7.11Z" transform="translate(-405.61 -449.41)"/><path d="M884.21,811.91C879,819.84,877,822,870.56,822c-4.53,0-4.94-3.51-4.94-6.39,0-2.16,14.93-55.93,14.93-58.1,0-2.67-4.32-2.67-7-2.57v-1.65a145.64,145.64,0,0,0,16.07-2.78l.51.52-15.55,59.64a32.52,32.52,0,0,0-1,4.84c0,.62,0,2.06,1.54,2.06,2.58,0,2.73-.07,7.78-6.56Z" transform="translate(-405.61 -449.41)"/><path class="cls-1" d="M707.8,653.11a101.85,101.85,0,1,0,0-203.7H579a101.85,101.85,0,1,0,0,203.7Z" transform="translate(-405.61 -449.41)"/><circle class="cls-2" cx="579.04" cy="551.26" r="99.58" transform="translate(-625.81 121.5) rotate(-45)"/><path class="cls-1" d="M558.94,493.77a60.91,60.91,0,0,0,.13,115Z" transform="translate(-405.61 -449.41)"/><path class="cls-1" d="M639.93,551.26A60.92,60.92,0,0,1,599,608.79l.13-115a60.92,60.92,0,0,1,40.78,57.49" transform="translate(-405.61 -449.41)"/><path class="cls-2" d="M447.14,724.88c-.93,3.4-2.27,7.93-2.27,9.58,0,3.4,2.47,4,7.31,4,32.45,0,33.44-29.71,33.44-36,0-10.4-1.5-23.07-19.73-23.07-5.87,0-6.28,1.54-6.69,3Z" transform="translate(-405.61 -449.41)"/><path class="cls-2" d="M580.05,720.14c21.22-4.32,21.73-16.68,21.73-17.51,0-2.16-1-4.12-3.6-4.12-5.56,0-12.57,7.94-16.38,17.1Z" transform="translate(-405.61 -449.41)"/><path class="cls-2" d="M855.14,698.38c-11.33,0-20.2,20.26-21.62,38.56-.06.71,0,3.39,4.84,3.39,14.11,0,23.9-21.73,23.9-30.38C862.26,706.75,861.63,698.38,855.14,698.38Z" transform="translate(-405.61 -449.41)"/><path class="cls-2" d="M519.85,799.41c21.22-4.33,21.73-16.69,21.73-17.51,0-2.17-1-4.12-3.6-4.12-5.56,0-12.57,7.93-16.38,17.1Z" transform="translate(-405.61 -449.41)"/><path class="cls-2" d="M645.32,816.92c10.92,0,21-22.25,21-32.34,0-5-2.88-6.91-5.87-6.91-12.05,0-21.32,22.66-21.32,31.94C639.14,815.06,642.54,816.92,645.32,816.92Z" transform="translate(-405.61 -449.41)"/><path class="cls-2" d="M735.63,810.22c0,5.88,3.09,9.58,8.24,9.58,11.74,0,19.88-21.32,19.88-32.34,0-5.36-2.27-9.89-7.21-9.89C745,777.57,735.63,798.07,735.63,810.22Z" transform="translate(-405.61 -449.41)"/><path class="cls-2" d="M832.11,816.92c10.92,0,21-22.25,21-32.34,0-5-2.88-6.91-5.87-6.91-12,0-21.32,22.66-21.32,31.94C825.93,815.06,829.33,816.92,832.11,816.92Z" transform="translate(-405.61 -449.41)"/></svg>